<svg xmlns="http://www.w3.org/2000/svg" width="12.773" height="16.723" viewBox="0 0 12.773 16.723"><defs><style>.a{fill:#fff;}</style></defs><path class="a" d="M571.625,803.2a18.914,18.914,0,0,0-2.741,3.649,33.635,33.635,0,0,0-2.456,4.888,21.976,21.976,0,0,0-.9,2.681q-.579-.066-1.45-.126a12.394,12.394,0,0,0-1.574-.007,22.51,22.51,0,0,1,.453-5.958,17.466,17.466,0,0,1,.868-3.166,4.044,4.044,0,0,1,.625-1.124c-.935-.221-1.607-.366-2.021-.434a3.744,3.744,0,0,1,.34-1.171,3.238,3.238,0,0,1,.24-.488c.016-.039.057-.046.123-.02.01,0,.062.029.148.072s.154.074.2.093a17.105,17.105,0,0,0,3.979.836,21.08,21.08,0,0,0,4.107.188.09.09,0,0,1,.053.088Zm-6.336,14.772c-.151.37-.7.583-1.639.645a9.021,9.021,0,0,1-2.4-.186,4.794,4.794,0,0,1-.829-.244,2.539,2.539,0,0,1-1.325-1.079,1.478,1.478,0,0,1-.141-1.332c.2-.482.8-.709,1.826-.668a7.235,7.235,0,0,1,2.4.51,4.4,4.4,0,0,1,1.782,1.2,1.138,1.138,0,0,1,.332,1.158Z" transform="translate(-558.852 -801.912)"/></svg>